<svg width="65" height="22" viewBox="0 0 65 22" fill="none" xmlns="http://www.w3.org/2000/svg">
<path d="M14.7715 14.7712C12.6887 16.854 9.31184 16.854 7.22905 14.7712M14.7715 14.7712C16.8543 12.6884 16.8543 9.31152 14.7715 7.22872M14.7715 14.7712L17.6 17.5996M7.22905 14.7712C5.14625 12.6884 5.14625 9.31152 7.22905 7.22872M7.22905 14.7712L4.40066 17.5996M14.7715 7.22872C12.6887 5.14593 9.31184 5.14593 7.22905 7.22872M14.7715 7.22872L17.6 4.4003M7.22905 7.22872L4.40066 4.4003M17.6 17.5996C13.9551 21.2445 8.04556 21.2445 4.40066 17.5996M17.6 17.5996C21.2449 13.9547 21.2449 8.04519 17.6 4.4003M4.40066 17.5996C0.755769 13.9547 0.755769 8.04519 4.40066 4.4003M17.6 4.4003C13.9551 0.755403 8.04556 0.755403 4.40066 4.4003" stroke="url(#paint0_linear_2618_1091)" stroke-width="1.5"/>
<path d="M46.333 15H63.6663M48.333 15V8.33329C48.333 4.65139 51.3178 1.66663 54.9997 1.66663C58.6816 1.66663 61.6663 4.65139 61.6663 8.33329V15M52.333 17V17.6666C52.333 19.1394 53.5269 20.3333 54.9997 20.3333C56.4724 20.3333 57.6663 19.1394 57.6663 17.6666V17" stroke="url(#paint1_linear_2618_1091)" stroke-width="1.5"/>
<defs>
<linearGradient id="paint0_linear_2618_1091" x1="0.314336" y1="-3.12285" x2="15.6051" y2="25.6756" gradientUnits="userSpaceOnUse">
<stop stop-color="#FFC881"/>
<stop offset="1" stop-color="#DA8517"/>
</linearGradient>
<linearGradient id="paint1_linear_2618_1091" x1="45.077" y1="-3.12285" x2="60.985" y2="24.6982" gradientUnits="userSpaceOnUse">
<stop stop-color="#FFC881"/>
<stop offset="1" stop-color="#DA8517"/>
</linearGradient>
</defs>
</svg>
