<svg width="562" height="351" viewBox="0 0 562 351" fill="none" xmlns="http://www.w3.org/2000/svg">
<path opacity="0.125" fill-rule="evenodd" clip-rule="evenodd" d="M53.8679 -168.27C100.266 -216.007 174.114 -153.601 238.607 -155.155C293.487 -156.478 352.744 -207.347 396.573 -176.532C441.013 -145.288 428.2 -76.2296 430.321 -20.3669C432.431 35.1705 441.561 93.4952 408.599 140.092C372.889 190.574 314.01 216.859 254.563 228.096C188.38 240.607 107.024 254.772 64.849 205.073C23.5004 156.347 75.4271 80.4451 73.4939 14.7212C71.6108 -49.3042 8.02288 -121.103 53.8679 -168.27Z" stroke="url(#paint0_linear_2618_1251)" stroke-opacity="0.23"/>
<path opacity="0.25" fill-rule="evenodd" clip-rule="evenodd" d="M75.2418 -148.224C126.722 -189.599 192.406 -118.651 256.353 -112.105C310.768 -106.534 375.33 -149.394 415.045 -113.439C455.312 -76.9824 434.534 -10.3196 430.071 45.17C425.634 100.337 427.811 159.138 389.749 201.071C348.513 246.5 287.213 265.105 227.118 268.763C160.213 272.836 78.1129 276.642 42.2517 222.226C7.0929 168.874 67.347 100.349 73.1546 35.1346C78.8122 -28.3945 24.3752 -107.341 75.2418 -148.224Z" stroke="url(#paint1_linear_2618_1251)" stroke-opacity="0.23"/>
<path opacity="0.375" fill-rule="evenodd" clip-rule="evenodd" d="M93.2312 -125.845C148.94 -160.337 205.48 -81.9067 267.872 -67.4194C320.962 -55.0917 389.767 -89.4144 424.769 -48.8618C460.257 -7.74456 431.901 55.6152 420.972 109.963C410.107 163.994 405.347 222.451 362.825 259.176C316.759 298.962 254.025 309.693 194.239 305.785C127.679 301.435 46.1407 294.917 17.115 236.58C-11.3422 179.386 56.2235 119.128 69.6232 55.3259C82.6765 -6.82717 38.1859 -91.7635 93.2312 -125.845Z" stroke="url(#paint2_linear_2618_1251)" stroke-opacity="0.23"/>
<path opacity="0.5" fill-rule="evenodd" clip-rule="evenodd" d="M107.604 -101.582C166.638 -128.782 213.189 -44.0405 273.047 -21.8965C323.982 -3.05352 395.918 -28.449 425.678 16.0873C455.853 61.2437 420.407 120.451 403.221 172.911C386.134 225.065 374.551 282.365 328.266 313.424C278.123 347.072 214.957 349.86 156.423 338.52C91.2574 325.895 11.5674 309.252 -10.2011 247.848C-31.5431 187.648 42.2263 136.412 62.9648 74.8973C83.1674 14.9728 49.2727 -74.7063 107.604 -101.582Z" stroke="url(#paint3_linear_2618_1251)" stroke-opacity="0.23"/>
<path opacity="0.625" fill-rule="evenodd" clip-rule="evenodd" d="M118.185 -75.9053C179.605 -95.5199 215.471 -5.73356 271.864 23.6632C319.85 48.6778 393.777 32.4569 417.847 80.3036C442.252 128.817 400.301 183.092 377.15 232.951C354.133 282.519 335.933 337.873 286.626 362.899C233.209 390.011 170.605 384.916 114.24 366.392C51.4875 345.77 -25.1085 319.358 -39.3039 255.787C-53.2214 193.462 25.5695 151.856 53.2941 93.4643C80.3023 36.5816 57.4975 -56.5245 118.185 -75.9053Z" stroke="url(#paint4_linear_2618_1251)" stroke-opacity="0.23"/>
<path opacity="0.75" fill-rule="evenodd" clip-rule="evenodd" d="M124.862 -49.2992C187.705 -61.1555 212.352 32.3352 264.409 68.4684C308.706 99.2152 383.466 92.2721 401.484 142.706C419.752 193.842 371.963 242.485 343.22 289.073C314.644 335.39 290.125 388.04 238.571 406.762C182.719 427.045 121.65 414.246 68.3254 388.901C8.95895 360.684 -63.3568 325.012 -69.7745 260.204C-76.0665 196.665 6.50823 165.146 40.7724 110.661C74.151 57.5834 62.7676 -37.5841 124.862 -49.2992Z" stroke="url(#paint5_linear_2618_1251)" stroke-opacity="0.23"/>
<path opacity="0.875" fill-rule="evenodd" clip-rule="evenodd" d="M127.582 -22.254C190.881 -26.2994 203.939 69.4994 250.865 111.749C290.794 147.701 365.239 149.995 376.933 202.254C388.789 255.241 335.902 297.639 302.015 340.337C268.325 382.787 237.87 432.021 184.863 444.266C127.437 457.531 68.8406 437.329 19.3745 405.629C-35.6966 370.336 -102.624 326.055 -101.173 260.958C-99.7504 197.135 -14.6653 176.002 25.6051 126.145C64.8347 77.5766 65.0365 -18.2569 127.582 -22.254Z" stroke="url(#paint6_linear_2618_1251)" stroke-opacity="0.23"/>
<path fill-rule="evenodd" clip-rule="evenodd" d="M126.352 4.74062C189.148 8.43966 190.424 105.116 231.507 152.769C266.466 193.319 339.466 204.669 344.661 257.963C349.927 312 292.745 347.637 254.228 385.887C215.936 423.915 180.008 469.07 126.352 474.764C68.2226 480.932 12.9862 453.74 -31.8732 416.247C-81.8157 374.506 -142.343 322.399 -133.047 257.963C-123.932 194.79 -37.6268 184.184 8.03811 139.606C52.5229 96.1802 64.3039 1.08565 126.352 4.74062Z" stroke="url(#paint7_linear_2618_1251)" stroke-opacity="0.23"/>
<defs>
<linearGradient id="paint0_linear_2618_1251" x1="-242.309" y1="-11.9183" x2="565.581" y2="200.705" gradientUnits="userSpaceOnUse">
<stop stop-color="#FFC881"/>
<stop offset="1" stop-color="#DA8517"/>
</linearGradient>
<linearGradient id="paint1_linear_2618_1251" x1="-235.951" y1="-30.7806" x2="539.765" y2="275.791" gradientUnits="userSpaceOnUse">
<stop stop-color="#FFC881"/>
<stop offset="1" stop-color="#DA8517"/>
</linearGradient>
<linearGradient id="paint2_linear_2618_1251" x1="-227.936" y1="-48.6151" x2="504.737" y2="347.237" gradientUnits="userSpaceOnUse">
<stop stop-color="#FFC881"/>
<stop offset="1" stop-color="#DA8517"/>
</linearGradient>
<linearGradient id="paint3_linear_2618_1251" x1="-218.406" y1="-65.2251" x2="461.013" y2="413.99" gradientUnits="userSpaceOnUse">
<stop stop-color="#FFC881"/>
<stop offset="1" stop-color="#DA8517"/>
</linearGradient>
<linearGradient id="paint4_linear_2618_1251" x1="-207.525" y1="-80.4332" x2="409.228" y2="475.068" gradientUnits="userSpaceOnUse">
<stop stop-color="#FFC881"/>
<stop offset="1" stop-color="#DA8517"/>
</linearGradient>
<linearGradient id="paint5_linear_2618_1251" x1="-195.478" y1="-94.0834" x2="350.128" y2="529.573" gradientUnits="userSpaceOnUse">
<stop stop-color="#FFC881"/>
<stop offset="1" stop-color="#DA8517"/>
</linearGradient>
<linearGradient id="paint6_linear_2618_1251" x1="-182.467" y1="-106.044" x2="284.558" y2="576.704" gradientUnits="userSpaceOnUse">
<stop stop-color="#FFC881"/>
<stop offset="1" stop-color="#DA8517"/>
</linearGradient>
<linearGradient id="paint7_linear_2618_1251" x1="-168.71" y1="-116.21" x2="213.448" y2="615.769" gradientUnits="userSpaceOnUse">
<stop stop-color="#FFC881"/>
<stop offset="1" stop-color="#DA8517"/>
</linearGradient>
</defs>
</svg>
