<svg width="92" height="74" viewBox="0 0 92 74" fill="none" xmlns="http://www.w3.org/2000/svg">
<path d="M8.19886 57.7379H10.6591V65.2947C10.6591 66.1432 10.4564 66.8856 10.0511 67.522C9.64962 68.1584 9.08712 68.6546 8.36364 69.0106C7.64015 69.3629 6.79735 69.539 5.83523 69.539C4.86932 69.539 4.02462 69.3629 3.30114 69.0106C2.57765 68.6546 2.01515 68.1584 1.61364 67.522C1.21212 66.8856 1.01136 66.1432 1.01136 65.2947V57.7379H3.47159V65.0845C3.47159 65.5277 3.56818 65.9216 3.76136 66.2663C3.95833 66.611 4.23485 66.8818 4.59091 67.0788C4.94697 67.2758 5.36174 67.3743 5.83523 67.3743C6.3125 67.3743 6.72727 67.2758 7.07955 67.0788C7.43561 66.8818 7.71023 66.611 7.90341 66.2663C8.10038 65.9216 8.19886 65.5277 8.19886 65.0845V57.7379ZM12.6832 69.3743V57.7379H17.2741C18.1529 57.7379 18.9029 57.8951 19.5241 58.2095C20.1491 58.5201 20.6245 58.9614 20.9503 59.5334C21.2798 60.1015 21.4446 60.7701 21.4446 61.539C21.4446 62.3118 21.2779 62.9765 20.9446 63.5334C20.6113 64.0864 20.1283 64.5106 19.4957 64.8061C18.867 65.1015 18.1056 65.2493 17.2116 65.2493H14.1378V63.272H16.8139C17.2836 63.272 17.6738 63.2076 17.9844 63.0788C18.295 62.95 18.526 62.7568 18.6776 62.4993C18.8329 62.2417 18.9105 61.9216 18.9105 61.539C18.9105 61.1527 18.8329 60.8269 18.6776 60.5618C18.526 60.2966 18.2931 60.0959 17.9787 59.9595C17.6681 59.8193 17.276 59.7493 16.8026 59.7493H15.1435V69.3743H12.6832ZM18.9673 64.0788L21.8594 69.3743H19.1435L16.3139 64.0788H18.9673ZM23.1832 69.3743V57.7379H27.8423C28.6984 57.7379 29.4124 57.8648 29.9844 58.1186C30.5563 58.3724 30.9863 58.7246 31.2741 59.1754C31.562 59.6224 31.706 60.1375 31.706 60.7209C31.706 61.1754 31.6151 61.575 31.4332 61.9197C31.2514 62.2606 31.0014 62.5409 30.6832 62.7606C30.3688 62.9765 30.009 63.1299 29.6037 63.2209V63.3345C30.0469 63.3534 30.4616 63.4784 30.848 63.7095C31.2382 63.9406 31.5545 64.2644 31.7969 64.6811C32.0393 65.094 32.1605 65.5864 32.1605 66.1584C32.1605 66.7758 32.0071 67.3269 31.7003 67.8118C31.3973 68.2928 30.9484 68.6735 30.3537 68.9538C29.759 69.2341 29.026 69.3743 28.1548 69.3743H23.1832ZM25.6435 67.3629H27.6491C28.3348 67.3629 28.8348 67.2322 29.1491 66.9709C29.4635 66.7057 29.6207 66.3534 29.6207 65.914C29.6207 65.5921 29.5431 65.308 29.3878 65.0618C29.2325 64.8156 29.0109 64.6224 28.723 64.4822C28.4389 64.3421 28.0999 64.272 27.706 64.272H25.6435V67.3629ZM25.6435 62.6072H27.4673C27.8045 62.6072 28.1037 62.5485 28.3651 62.4311C28.6302 62.3099 28.8385 62.1394 28.9901 61.9197C29.1454 61.7 29.223 61.4368 29.223 61.1299C29.223 60.7095 29.0734 60.3705 28.7741 60.1129C28.4787 59.8553 28.0582 59.7265 27.5128 59.7265H25.6435V62.6072ZM35.767 69.3743H33.1307L37.1477 57.7379H40.3182L44.3295 69.3743H41.6932L38.7784 60.397H38.6875L35.767 69.3743ZM35.6023 64.8004H41.8295V66.7209H35.6023V64.8004ZM55.4631 57.7379V69.3743H53.3381L48.2756 62.0504H48.1903V69.3743H45.7301V57.7379H47.8892L52.9119 65.0561H53.0142V57.7379H55.4631ZM70.9318 57.7379V69.3743H68.8068L63.7443 62.0504H63.6591V69.3743H61.1989V57.7379H63.358L68.3807 65.0561H68.483V57.7379H70.9318ZM72.9645 69.3743V57.7379H80.669V59.7663H75.4247V62.539H80.1577V64.5674H75.4247V69.3743H72.9645ZM81.8807 59.7663V57.7379H91.4375V59.7663H87.875V69.3743H85.4432V59.7663H81.8807Z" fill="url(#paint0_linear_2618_1050)"/>
<path fill-rule="evenodd" clip-rule="evenodd" d="M53.2154 3.66228L53.3434 3.07526C54.1805 -0.765007 59.5261 -1.10443 60.8422 2.59911C60.9902 3.01564 61.0665 3.45428 61.0678 3.89632L61.1694 39.6313C64.7405 40.6312 65.0823 45.5775 61.6638 47.0518C61.1704 47.2645 60.6388 47.3743 60.1015 47.3743H31.0042C26.5198 47.3743 25.4312 41.1266 29.6514 39.61C30.0019 39.484 30.3679 39.4077 30.7387 39.3831C29.8018 37.5415 29.3333 35.4523 29.3333 33.1157V8.55608H37.329V32.4325C37.329 33.8728 37.643 35.1531 38.2708 36.2734C38.911 37.3937 39.8096 38.2739 40.9668 38.914C41.289 39.0922 41.6259 39.2457 41.9777 39.3743H48.0515C48.4017 39.2457 48.7362 39.0922 49.0549 38.914C50.2121 38.2739 51.1046 37.3937 51.7325 36.2734C52.3726 35.1531 52.6927 33.8728 52.6927 32.4325V8.55608H53.1333L53.1218 4.54257C53.121 4.24661 53.1524 3.95144 53.2154 3.66228Z" fill="url(#paint1_linear_2618_1050)"/>
<defs>
<linearGradient id="paint0_linear_2618_1050" x1="-6.66666" y1="49.4993" x2="-2.59521" y2="86.6293" gradientUnits="userSpaceOnUse">
<stop stop-color="#FFC881"/>
<stop offset="1" stop-color="#DA8517"/>
</linearGradient>
<linearGradient id="paint1_linear_2618_1050" x1="24.3154" y1="-12.1552" x2="67.857" y2="51.974" gradientUnits="userSpaceOnUse">
<stop stop-color="#FFC881"/>
<stop offset="1" stop-color="#DA8517"/>
</linearGradient>
</defs>
</svg>
